<svg width="112" height="25" viewBox="0 0 112 25" fill="none" xmlns="http://www.w3.org/2000/svg">
<path d="M0.648 24V1.6H2.6L18.056 21.056H17.032V1.6H19.368V24H17.416L1.992 4.544H3.016V24H0.648ZM33.0473 24.16C31.4259 24.16 29.9646 23.7973 28.6633 23.072C27.3833 22.3253 26.3699 21.312 25.6233 20.032C24.8766 18.7307 24.5033 17.248 24.5033 15.584C24.5033 13.8987 24.8766 12.416 25.6233 11.136C26.3699 9.856 27.3833 8.85333 28.6633 8.128C29.9433 7.40267 31.4046 7.04 33.0473 7.04C34.7113 7.04 36.1833 7.40267 37.4633 8.128C38.7646 8.85333 39.7779 9.856 40.5033 11.136C41.2499 12.416 41.6233 13.8987 41.6233 15.584C41.6233 17.248 41.2499 18.7307 40.5033 20.032C39.7779 21.312 38.7646 22.3253 37.4633 23.072C36.1619 23.7973 34.6899 24.16 33.0473 24.16ZM33.0473 22.144C34.2633 22.144 35.3406 21.8773 36.2793 21.344C37.2179 20.7893 37.9539 20.0213 38.4873 19.04C39.0419 18.0373 39.3193 16.8853 39.3193 15.584C39.3193 14.2613 39.0419 13.1093 38.4873 12.128C37.9539 11.1467 37.2179 10.3893 36.2793 9.856C35.3406 9.30133 34.2739 9.024 33.0793 9.024C31.8846 9.024 30.8179 9.30133 29.8793 9.856C28.9406 10.3893 28.1939 11.1467 27.6393 12.128C27.0846 13.1093 26.8073 14.2613 26.8073 15.584C26.8073 16.8853 27.0846 18.0373 27.6393 19.04C28.1939 20.0213 28.9406 20.7893 29.8793 21.344C30.8179 21.8773 31.8739 22.144 33.0473 22.144ZM50.113 24L42.657 7.2H45.025L51.873 22.784H50.753L57.697 7.2H59.937L52.449 24H50.113ZM69.804 24.16C68.0547 24.16 66.5187 23.7973 65.196 23.072C63.8733 22.3253 62.8387 21.312 62.092 20.032C61.3453 18.7307 60.972 17.248 60.972 15.584C60.972 13.92 61.324 12.448 62.028 11.168C62.7533 9.888 63.7347 8.88533 64.972 8.16C66.2307 7.41333 67.6387 7.04 69.196 7.04C70.7747 7.04 72.172 7.40267 73.388 8.128C74.6253 8.832 75.596 9.83467 76.3 11.136C77.004 12.416 77.356 13.8987 77.356 15.584C77.356 15.6907 77.3453 15.808 77.324 15.936C77.324 16.0427 77.324 16.16 77.324 16.288H62.7V14.592H76.108L75.212 15.264C75.212 14.048 74.9453 12.9707 74.412 12.032C73.9 11.072 73.196 10.3253 72.3 9.792C71.404 9.25867 70.3693 8.992 69.196 8.992C68.044 8.992 67.0093 9.25867 66.092 9.792C65.1747 10.3253 64.46 11.072 63.948 12.032C63.436 12.992 63.18 14.0907 63.18 15.328V15.68C63.18 16.96 63.4573 18.0907 64.012 19.072C64.588 20.032 65.3773 20.7893 66.38 21.344C67.404 21.8773 68.5667 22.144 69.868 22.144C70.892 22.144 71.8413 21.9627 72.716 21.6C73.612 21.2373 74.38 20.6827 75.02 19.936L76.3 21.408C75.5533 22.304 74.6147 22.9867 73.484 23.456C72.3747 23.9253 71.148 24.16 69.804 24.16ZM81.9805 24V0.255999H84.2525V24H81.9805ZM90.5743 24V0.255999H92.8463V24H90.5743ZM109.696 24V20.288L109.6 19.68V13.472C109.6 12.0427 109.195 10.944 108.384 10.176C107.595 9.408 106.411 9.024 104.832 9.024C103.744 9.024 102.709 9.20533 101.728 9.568C100.747 9.93067 99.9147 10.4107 99.232 11.008L98.208 9.312C99.0613 8.58667 100.085 8.032 101.28 7.648C102.475 7.24267 103.733 7.04 105.056 7.04C107.232 7.04 108.907 7.584 110.08 8.672C111.275 9.73867 111.872 11.3707 111.872 13.568V24H109.696ZM103.904 24.16C102.645 24.16 101.547 23.9573 100.608 23.552C99.6907 23.1253 98.9867 22.5493 98.496 21.824C98.0053 21.0773 97.76 20.224 97.76 19.264C97.76 18.3893 97.9627 17.6 98.368 16.896C98.7947 16.1707 99.4773 15.5947 100.416 15.168C101.376 14.72 102.656 14.496 104.256 14.496H110.048V16.192H104.32C102.699 16.192 101.568 16.48 100.928 17.056C100.309 17.632 100 18.3467 100 19.2C100 20.16 100.373 20.928 101.12 21.504C101.867 22.08 102.912 22.368 104.256 22.368C105.536 22.368 106.635 22.08 107.552 21.504C108.491 20.9067 109.173 20.0533 109.6 18.944L110.112 20.512C109.685 21.6213 108.939 22.5067 107.872 23.168C106.827 23.8293 105.504 24.16 103.904 24.16Z" fill="white"/>
</svg>
